<mxfile host="app.diagrams.net" agent="Mozilla/5.0 (Windows NT 10.0; Win64; x64) AppleWebKit/537.36 (KHTML, like Gecko) Chrome/128.0.0.0 Safari/537.36" version="24.7.8">
  <diagram name="Page-1" id="_y4HHMj8bc2AR5snB5iF">
    <mxGraphModel dx="3000" dy="1514" grid="1" gridSize="10" guides="1" tooltips="1" connect="1" arrows="1" fold="1" page="1" pageScale="1" pageWidth="827" pageHeight="1169" background="#ffffff" math="0" shadow="0">
      <root>
        <mxCell id="0" />
        <mxCell id="1" parent="0" />
        <mxCell id="pArUkwMWXAyJGo1aVztm-539" value="" style="html=1;points=[[0,0,0,0,5],[0,1,0,0,-5],[1,0,0,0,5],[1,1,0,0,-5]];perimeter=orthogonalPerimeter;outlineConnect=0;targetShapes=umlLifeline;portConstraint=eastwest;newEdgeStyle={&quot;curved&quot;:0,&quot;rounded&quot;:0};" vertex="1" parent="1">
          <mxGeometry x="510" y="1000" width="10" height="120" as="geometry" />
        </mxCell>
        <mxCell id="pArUkwMWXAyJGo1aVztm-1" value="User" style="shape=umlActor;verticalLabelPosition=bottom;verticalAlign=top;html=1;" vertex="1" parent="1">
          <mxGeometry x="40" y="60" width="30" height="60" as="geometry" />
        </mxCell>
        <mxCell id="pArUkwMWXAyJGo1aVztm-3" value="Website" style="shape=umlActor;verticalLabelPosition=bottom;verticalAlign=top;html=1;" vertex="1" parent="1">
          <mxGeometry x="460" y="60" width="30" height="60" as="geometry" />
        </mxCell>
        <mxCell id="pArUkwMWXAyJGo1aVztm-4" value="Use Case" style="text;strokeColor=none;align=center;fillColor=none;html=1;verticalAlign=middle;whiteSpace=wrap;rounded=0;fontSize=26;" vertex="1" parent="1">
          <mxGeometry x="195" y="30" width="150" height="30" as="geometry" />
        </mxCell>
        <mxCell id="pArUkwMWXAyJGo1aVztm-5" value="" style="endArrow=open;endFill=1;endSize=12;html=1;rounded=0;" edge="1" parent="1" target="pArUkwMWXAyJGo1aVztm-7">
          <mxGeometry width="160" relative="1" as="geometry">
            <mxPoint x="80" y="89.5" as="sourcePoint" />
            <mxPoint x="190" y="90" as="targetPoint" />
          </mxGeometry>
        </mxCell>
        <mxCell id="pArUkwMWXAyJGo1aVztm-6" value="" style="endArrow=open;endFill=1;endSize=12;html=1;rounded=0;" edge="1" parent="1">
          <mxGeometry width="160" relative="1" as="geometry">
            <mxPoint x="470" y="89.5" as="sourcePoint" />
            <mxPoint x="310" y="90" as="targetPoint" />
          </mxGeometry>
        </mxCell>
        <mxCell id="pArUkwMWXAyJGo1aVztm-7" value="Login" style="text;strokeColor=none;align=center;fillColor=none;html=1;verticalAlign=middle;whiteSpace=wrap;rounded=0;strokeWidth=2;fontSize=24;" vertex="1" parent="1">
          <mxGeometry x="240" y="75" width="60" height="30" as="geometry" />
        </mxCell>
        <mxCell id="pArUkwMWXAyJGo1aVztm-8" value="Register" style="text;strokeColor=none;align=center;fillColor=none;html=1;verticalAlign=middle;whiteSpace=wrap;rounded=0;fontSize=24;" vertex="1" parent="1">
          <mxGeometry x="240" y="140" width="60" height="30" as="geometry" />
        </mxCell>
        <mxCell id="pArUkwMWXAyJGo1aVztm-9" value="Visit&amp;nbsp;&lt;br style=&quot;font-size: 24px;&quot;&gt;Website" style="text;strokeColor=none;align=center;fillColor=none;html=1;verticalAlign=middle;whiteSpace=wrap;rounded=0;fontSize=24;" vertex="1" parent="1">
          <mxGeometry x="210" y="210" width="110" height="30" as="geometry" />
        </mxCell>
        <mxCell id="pArUkwMWXAyJGo1aVztm-10" value="" style="endArrow=open;endFill=1;endSize=12;html=1;rounded=0;" edge="1" parent="1">
          <mxGeometry width="160" relative="1" as="geometry">
            <mxPoint x="80" y="90" as="sourcePoint" />
            <mxPoint x="220" y="150" as="targetPoint" />
            <Array as="points">
              <mxPoint x="160" y="150" />
            </Array>
          </mxGeometry>
        </mxCell>
        <mxCell id="pArUkwMWXAyJGo1aVztm-11" value="" style="endArrow=open;endFill=1;endSize=12;html=1;rounded=0;" edge="1" parent="1">
          <mxGeometry width="160" relative="1" as="geometry">
            <mxPoint x="470" y="90" as="sourcePoint" />
            <mxPoint x="330" y="154.5" as="targetPoint" />
            <Array as="points">
              <mxPoint x="390" y="150" />
            </Array>
          </mxGeometry>
        </mxCell>
        <mxCell id="pArUkwMWXAyJGo1aVztm-12" value="" style="endArrow=open;endFill=1;endSize=12;html=1;rounded=0;entryX=0;entryY=0.25;entryDx=0;entryDy=0;" edge="1" parent="1" target="pArUkwMWXAyJGo1aVztm-9">
          <mxGeometry width="160" relative="1" as="geometry">
            <mxPoint x="80" y="90" as="sourcePoint" />
            <mxPoint x="210" y="200.5" as="targetPoint" />
            <Array as="points">
              <mxPoint x="150" y="220" />
            </Array>
          </mxGeometry>
        </mxCell>
        <mxCell id="pArUkwMWXAyJGo1aVztm-13" value="" style="endArrow=open;endFill=1;endSize=12;html=1;rounded=0;entryX=1.076;entryY=0.507;entryDx=0;entryDy=0;entryPerimeter=0;" edge="1" parent="1" target="pArUkwMWXAyJGo1aVztm-9">
          <mxGeometry width="160" relative="1" as="geometry">
            <mxPoint x="470" y="90" as="sourcePoint" />
            <mxPoint x="470" y="240.5" as="targetPoint" />
            <Array as="points">
              <mxPoint x="420" y="225" />
            </Array>
          </mxGeometry>
        </mxCell>
        <mxCell id="pArUkwMWXAyJGo1aVztm-16" value="Developer" style="shape=umlActor;verticalLabelPosition=bottom;verticalAlign=top;html=1;" vertex="1" parent="1">
          <mxGeometry x="40" y="300" width="30" height="60" as="geometry" />
        </mxCell>
        <mxCell id="pArUkwMWXAyJGo1aVztm-18" value="Maintanance" style="text;strokeColor=none;align=center;fillColor=none;html=1;verticalAlign=middle;whiteSpace=wrap;rounded=0;fontSize=24;" vertex="1" parent="1">
          <mxGeometry x="190" y="315" width="140" height="30" as="geometry" />
        </mxCell>
        <mxCell id="pArUkwMWXAyJGo1aVztm-19" value="" style="endArrow=open;endFill=1;endSize=12;html=1;rounded=0;" edge="1" parent="1">
          <mxGeometry width="160" relative="1" as="geometry">
            <mxPoint x="70" y="329.5" as="sourcePoint" />
            <mxPoint x="180" y="330" as="targetPoint" />
          </mxGeometry>
        </mxCell>
        <mxCell id="pArUkwMWXAyJGo1aVztm-20" value="" style="endArrow=open;endFill=1;endSize=12;html=1;rounded=0;entryX=1;entryY=0.5;entryDx=0;entryDy=0;" edge="1" parent="1" target="pArUkwMWXAyJGo1aVztm-18">
          <mxGeometry width="160" relative="1" as="geometry">
            <mxPoint x="470" y="90" as="sourcePoint" />
            <mxPoint x="470" y="330.5" as="targetPoint" />
            <Array as="points">
              <mxPoint x="470" y="330" />
            </Array>
          </mxGeometry>
        </mxCell>
        <mxCell id="pArUkwMWXAyJGo1aVztm-483" value="Activity Diagram" style="text;strokeColor=none;align=center;fillColor=none;html=1;verticalAlign=middle;whiteSpace=wrap;rounded=0;fontSize=24;" vertex="1" parent="1">
          <mxGeometry x="175" y="400" width="190" height="30" as="geometry" />
        </mxCell>
        <mxCell id="pArUkwMWXAyJGo1aVztm-485" value="" style="endArrow=none;html=1;rounded=0;entryX=0.562;entryY=1.129;entryDx=0;entryDy=0;entryPerimeter=0;" edge="1" parent="1" target="pArUkwMWXAyJGo1aVztm-483">
          <mxGeometry width="50" height="50" relative="1" as="geometry">
            <mxPoint x="282" y="840" as="sourcePoint" />
            <mxPoint x="280" y="520" as="targetPoint" />
          </mxGeometry>
        </mxCell>
        <mxCell id="pArUkwMWXAyJGo1aVztm-486" value="User" style="text;strokeColor=none;align=center;fillColor=none;html=1;verticalAlign=middle;whiteSpace=wrap;rounded=0;fontSize=20;" vertex="1" parent="1">
          <mxGeometry x="110" y="430" width="120" height="30" as="geometry" />
        </mxCell>
        <mxCell id="pArUkwMWXAyJGo1aVztm-504" value="" style="edgeStyle=none;rounded=0;orthogonalLoop=1;jettySize=auto;html=1;" edge="1" parent="1" source="pArUkwMWXAyJGo1aVztm-487" target="pArUkwMWXAyJGo1aVztm-493">
          <mxGeometry relative="1" as="geometry" />
        </mxCell>
        <mxCell id="pArUkwMWXAyJGo1aVztm-487" value="Sistem" style="text;strokeColor=none;align=center;fillColor=none;html=1;verticalAlign=middle;whiteSpace=wrap;rounded=0;fontSize=20;" vertex="1" parent="1">
          <mxGeometry x="325" y="430" width="130" height="30" as="geometry" />
        </mxCell>
        <mxCell id="pArUkwMWXAyJGo1aVztm-509" style="edgeStyle=none;rounded=0;orthogonalLoop=1;jettySize=auto;html=1;exitX=1;exitY=0.5;exitDx=0;exitDy=0;" edge="1" parent="1" source="pArUkwMWXAyJGo1aVztm-488" target="pArUkwMWXAyJGo1aVztm-493">
          <mxGeometry relative="1" as="geometry" />
        </mxCell>
        <mxCell id="pArUkwMWXAyJGo1aVztm-488" value="" style="rounded=0;whiteSpace=wrap;html=1;" vertex="1" parent="1">
          <mxGeometry x="120" y="525" width="120" height="60" as="geometry" />
        </mxCell>
        <mxCell id="pArUkwMWXAyJGo1aVztm-510" style="edgeStyle=none;rounded=0;orthogonalLoop=1;jettySize=auto;html=1;exitX=0;exitY=1;exitDx=0;exitDy=0;entryX=1;entryY=0.25;entryDx=0;entryDy=0;" edge="1" parent="1" source="pArUkwMWXAyJGo1aVztm-489" target="pArUkwMWXAyJGo1aVztm-490">
          <mxGeometry relative="1" as="geometry" />
        </mxCell>
        <mxCell id="pArUkwMWXAyJGo1aVztm-489" value="" style="rounded=0;whiteSpace=wrap;html=1;" vertex="1" parent="1">
          <mxGeometry x="330" y="525" width="120" height="60" as="geometry" />
        </mxCell>
        <mxCell id="pArUkwMWXAyJGo1aVztm-511" style="edgeStyle=none;rounded=0;orthogonalLoop=1;jettySize=auto;html=1;exitX=1;exitY=0.5;exitDx=0;exitDy=0;entryX=0;entryY=0.5;entryDx=0;entryDy=0;" edge="1" parent="1" source="pArUkwMWXAyJGo1aVztm-490" target="pArUkwMWXAyJGo1aVztm-495">
          <mxGeometry relative="1" as="geometry" />
        </mxCell>
        <mxCell id="pArUkwMWXAyJGo1aVztm-490" value="" style="rounded=0;whiteSpace=wrap;html=1;" vertex="1" parent="1">
          <mxGeometry x="120" y="610" width="120" height="60" as="geometry" />
        </mxCell>
        <mxCell id="pArUkwMWXAyJGo1aVztm-512" style="edgeStyle=none;rounded=0;orthogonalLoop=1;jettySize=auto;html=1;exitX=0.5;exitY=1;exitDx=0;exitDy=0;entryX=0.5;entryY=0;entryDx=0;entryDy=0;" edge="1" parent="1" source="pArUkwMWXAyJGo1aVztm-491" target="pArUkwMWXAyJGo1aVztm-496">
          <mxGeometry relative="1" as="geometry" />
        </mxCell>
        <mxCell id="pArUkwMWXAyJGo1aVztm-491" value="" style="rounded=0;whiteSpace=wrap;html=1;" vertex="1" parent="1">
          <mxGeometry x="330" y="610" width="120" height="60" as="geometry" />
        </mxCell>
        <mxCell id="pArUkwMWXAyJGo1aVztm-492" value="Buka&amp;nbsp;&lt;br style=&quot;font-size: 18px;&quot;&gt;Website" style="text;strokeColor=none;align=center;fillColor=none;html=1;verticalAlign=middle;whiteSpace=wrap;rounded=0;fontSize=18;" vertex="1" parent="1">
          <mxGeometry x="140" y="540" width="90" height="30" as="geometry" />
        </mxCell>
        <mxCell id="pArUkwMWXAyJGo1aVztm-493" value="Tampilkan&lt;div style=&quot;font-size: 18px;&quot;&gt;Form Login&lt;/div&gt;" style="text;strokeColor=none;align=center;fillColor=none;html=1;verticalAlign=middle;whiteSpace=wrap;rounded=0;fontSize=18;" vertex="1" parent="1">
          <mxGeometry x="330" y="540" width="120" height="30" as="geometry" />
        </mxCell>
        <mxCell id="pArUkwMWXAyJGo1aVztm-494" value="Isi Form&lt;br style=&quot;font-size: 18px;&quot;&gt;Login" style="text;strokeColor=none;align=center;fillColor=none;html=1;verticalAlign=middle;whiteSpace=wrap;rounded=0;fontSize=18;" vertex="1" parent="1">
          <mxGeometry x="115" y="630" width="140" height="30" as="geometry" />
        </mxCell>
        <mxCell id="pArUkwMWXAyJGo1aVztm-513" style="edgeStyle=none;rounded=0;orthogonalLoop=1;jettySize=auto;html=1;exitX=1;exitY=0.5;exitDx=0;exitDy=0;entryX=1;entryY=0.5;entryDx=0;entryDy=0;" edge="1" parent="1" source="pArUkwMWXAyJGo1aVztm-495" target="pArUkwMWXAyJGo1aVztm-493">
          <mxGeometry relative="1" as="geometry">
            <Array as="points">
              <mxPoint x="520" y="600" />
            </Array>
          </mxGeometry>
        </mxCell>
        <mxCell id="pArUkwMWXAyJGo1aVztm-495" value="Benar ?" style="text;strokeColor=none;align=center;fillColor=none;html=1;verticalAlign=middle;whiteSpace=wrap;rounded=0;fontSize=19;" vertex="1" parent="1">
          <mxGeometry x="335" y="625" width="110" height="30" as="geometry" />
        </mxCell>
        <mxCell id="pArUkwMWXAyJGo1aVztm-514" style="edgeStyle=none;rounded=0;orthogonalLoop=1;jettySize=auto;html=1;exitX=0;exitY=0.5;exitDx=0;exitDy=0;entryX=1;entryY=0.5;entryDx=0;entryDy=0;" edge="1" parent="1" source="pArUkwMWXAyJGo1aVztm-496" target="pArUkwMWXAyJGo1aVztm-497">
          <mxGeometry relative="1" as="geometry" />
        </mxCell>
        <mxCell id="pArUkwMWXAyJGo1aVztm-496" value="" style="rounded=0;whiteSpace=wrap;html=1;" vertex="1" parent="1">
          <mxGeometry x="330" y="700" width="120" height="60" as="geometry" />
        </mxCell>
        <mxCell id="pArUkwMWXAyJGo1aVztm-516" style="edgeStyle=none;rounded=0;orthogonalLoop=1;jettySize=auto;html=1;exitX=0.5;exitY=1;exitDx=0;exitDy=0;entryX=0.5;entryY=0;entryDx=0;entryDy=0;" edge="1" parent="1" source="pArUkwMWXAyJGo1aVztm-497" target="pArUkwMWXAyJGo1aVztm-515">
          <mxGeometry relative="1" as="geometry" />
        </mxCell>
        <mxCell id="pArUkwMWXAyJGo1aVztm-497" value="" style="rounded=0;whiteSpace=wrap;html=1;" vertex="1" parent="1">
          <mxGeometry x="120" y="700" width="120" height="60" as="geometry" />
        </mxCell>
        <mxCell id="pArUkwMWXAyJGo1aVztm-500" value="Tampilkan Landing Page" style="text;strokeColor=none;align=center;fillColor=none;html=1;verticalAlign=middle;whiteSpace=wrap;rounded=0;fontSize=16;" vertex="1" parent="1">
          <mxGeometry x="345" y="715" width="100" height="30" as="geometry" />
        </mxCell>
        <mxCell id="pArUkwMWXAyJGo1aVztm-501" value="Visit Landing Page" style="text;strokeColor=none;align=center;fillColor=none;html=1;verticalAlign=middle;whiteSpace=wrap;rounded=0;fontSize=18;" vertex="1" parent="1">
          <mxGeometry x="135" y="715" width="90" height="30" as="geometry" />
        </mxCell>
        <mxCell id="pArUkwMWXAyJGo1aVztm-502" value="" style="ellipse;html=1;shape=startState;fillColor=#000000;strokeColor=#ff0000;" vertex="1" parent="1">
          <mxGeometry x="155" y="460" width="30" height="30" as="geometry" />
        </mxCell>
        <mxCell id="pArUkwMWXAyJGo1aVztm-503" value="" style="edgeStyle=orthogonalEdgeStyle;html=1;verticalAlign=bottom;endArrow=open;endSize=8;strokeColor=#ff0000;rounded=0;entryX=0.423;entryY=-0.023;entryDx=0;entryDy=0;entryPerimeter=0;" edge="1" source="pArUkwMWXAyJGo1aVztm-502" parent="1" target="pArUkwMWXAyJGo1aVztm-488">
          <mxGeometry relative="1" as="geometry">
            <mxPoint x="365" y="500" as="targetPoint" />
          </mxGeometry>
        </mxCell>
        <mxCell id="pArUkwMWXAyJGo1aVztm-515" value="" style="ellipse;html=1;shape=endState;fillColor=#000000;strokeColor=#ff0000;" vertex="1" parent="1">
          <mxGeometry x="160" y="790" width="30" height="30" as="geometry" />
        </mxCell>
        <mxCell id="pArUkwMWXAyJGo1aVztm-517" value="Salah" style="text;strokeColor=none;align=center;fillColor=none;html=1;verticalAlign=middle;whiteSpace=wrap;rounded=0;rotation=-25;" vertex="1" parent="1">
          <mxGeometry x="470" y="610" width="60" height="30" as="geometry" />
        </mxCell>
        <mxCell id="pArUkwMWXAyJGo1aVztm-518" value="Benar" style="text;strokeColor=none;align=center;fillColor=none;html=1;verticalAlign=middle;whiteSpace=wrap;rounded=0;" vertex="1" parent="1">
          <mxGeometry x="385" y="670" width="60" height="30" as="geometry" />
        </mxCell>
        <mxCell id="pArUkwMWXAyJGo1aVztm-519" value="&lt;h3 style=&quot;box-sizing: border-box; font-family: &amp;quot;Source Sans Pro&amp;quot;, Georgia, &amp;quot;Times New Roman&amp;quot;, serif; line-height: 1.5em; color: rgb(85, 85, 85); margin-top: 0px; margin-bottom: 16px; font-size: 24px; text-align: start; background-color: rgb(255, 255, 255); padding-left: 30px;&quot;&gt;Sequence Diagram&lt;/h3&gt;" style="text;strokeColor=none;align=center;fillColor=none;html=1;verticalAlign=middle;whiteSpace=wrap;rounded=0;" vertex="1" parent="1">
          <mxGeometry x="25" y="860" width="320" height="30" as="geometry" />
        </mxCell>
        <mxCell id="pArUkwMWXAyJGo1aVztm-525" value="" style="html=1;points=[[0,0,0,0,5],[0,1,0,0,-5],[1,0,0,0,5],[1,1,0,0,-5]];perimeter=orthogonalPerimeter;outlineConnect=0;targetShapes=umlLifeline;portConstraint=eastwest;newEdgeStyle={&quot;curved&quot;:0,&quot;rounded&quot;:0};" vertex="1" parent="1">
          <mxGeometry x="50" y="960" width="10" height="480" as="geometry" />
        </mxCell>
        <mxCell id="pArUkwMWXAyJGo1aVztm-529" value="User" style="shape=umlActor;verticalLabelPosition=bottom;verticalAlign=top;html=1;" vertex="1" parent="1">
          <mxGeometry x="40" y="880" width="30" height="60" as="geometry" />
        </mxCell>
        <mxCell id="pArUkwMWXAyJGo1aVztm-533" value="" style="html=1;points=[[0,0,0,0,5],[0,1,0,0,-5],[1,0,0,0,5],[1,1,0,0,-5]];perimeter=orthogonalPerimeter;outlineConnect=0;targetShapes=umlLifeline;portConstraint=eastwest;newEdgeStyle={&quot;curved&quot;:0,&quot;rounded&quot;:0};" vertex="1" parent="1">
          <mxGeometry x="215" y="960" width="10" height="200" as="geometry" />
        </mxCell>
        <mxCell id="pArUkwMWXAyJGo1aVztm-534" value="Membuka Website" style="html=1;verticalAlign=bottom;endArrow=block;curved=0;rounded=0;entryX=0;entryY=0;entryDx=0;entryDy=5;exitX=1;exitY=0;exitDx=0;exitDy=5;exitPerimeter=0;" edge="1" target="pArUkwMWXAyJGo1aVztm-533" parent="1" source="pArUkwMWXAyJGo1aVztm-525">
          <mxGeometry relative="1" as="geometry">
            <mxPoint x="145" y="965" as="sourcePoint" />
          </mxGeometry>
        </mxCell>
        <mxCell id="pArUkwMWXAyJGo1aVztm-535" value="return" style="html=1;verticalAlign=bottom;endArrow=open;dashed=1;endSize=8;curved=0;rounded=0;exitX=0;exitY=1;exitDx=0;exitDy=-5;" edge="1" source="pArUkwMWXAyJGo1aVztm-533" parent="1" target="pArUkwMWXAyJGo1aVztm-525">
          <mxGeometry relative="1" as="geometry">
            <mxPoint x="145" y="1035" as="targetPoint" />
          </mxGeometry>
        </mxCell>
        <mxCell id="pArUkwMWXAyJGo1aVztm-536" value="" style="html=1;points=[[0,0,0,0,5],[0,1,0,0,-5],[1,0,0,0,5],[1,1,0,0,-5]];perimeter=orthogonalPerimeter;outlineConnect=0;targetShapes=umlLifeline;portConstraint=eastwest;newEdgeStyle={&quot;curved&quot;:0,&quot;rounded&quot;:0};" vertex="1" parent="1">
          <mxGeometry x="375" y="980" width="10" height="160" as="geometry" />
        </mxCell>
        <mxCell id="pArUkwMWXAyJGo1aVztm-537" value="Input Username,Password" style="html=1;verticalAlign=bottom;endArrow=block;curved=0;rounded=0;entryX=0;entryY=0;entryDx=0;entryDy=5;" edge="1" target="pArUkwMWXAyJGo1aVztm-536" parent="1" source="pArUkwMWXAyJGo1aVztm-533">
          <mxGeometry relative="1" as="geometry">
            <mxPoint x="285" y="985" as="sourcePoint" />
          </mxGeometry>
        </mxCell>
        <mxCell id="pArUkwMWXAyJGo1aVztm-538" value="Username,Password&lt;br&gt;Salah" style="html=1;verticalAlign=bottom;endArrow=open;dashed=1;endSize=8;curved=0;rounded=0;exitX=0;exitY=1;exitDx=0;exitDy=-5;" edge="1" source="pArUkwMWXAyJGo1aVztm-536" parent="1" target="pArUkwMWXAyJGo1aVztm-533">
          <mxGeometry relative="1" as="geometry">
            <mxPoint x="285" y="1055" as="targetPoint" />
          </mxGeometry>
        </mxCell>
        <mxCell id="pArUkwMWXAyJGo1aVztm-540" value="Username,Password" style="html=1;verticalAlign=bottom;endArrow=block;curved=0;rounded=0;entryX=0;entryY=0;entryDx=0;entryDy=5;" edge="1" target="pArUkwMWXAyJGo1aVztm-539" parent="1" source="pArUkwMWXAyJGo1aVztm-536">
          <mxGeometry relative="1" as="geometry">
            <mxPoint x="450" y="1005" as="sourcePoint" />
          </mxGeometry>
        </mxCell>
        <mxCell id="pArUkwMWXAyJGo1aVztm-541" value="Username,Password&lt;br&gt;Salah" style="html=1;verticalAlign=bottom;endArrow=open;dashed=1;endSize=8;curved=0;rounded=0;exitX=0;exitY=1;exitDx=0;exitDy=-5;" edge="1" source="pArUkwMWXAyJGo1aVztm-539" parent="1" target="pArUkwMWXAyJGo1aVztm-536">
          <mxGeometry relative="1" as="geometry">
            <mxPoint x="450" y="1075" as="targetPoint" />
          </mxGeometry>
        </mxCell>
        <mxCell id="pArUkwMWXAyJGo1aVztm-542" value="" style="html=1;points=[[0,0,0,0,5],[0,1,0,0,-5],[1,0,0,0,5],[1,1,0,0,-5]];perimeter=orthogonalPerimeter;outlineConnect=0;targetShapes=umlLifeline;portConstraint=eastwest;newEdgeStyle={&quot;curved&quot;:0,&quot;rounded&quot;:0};fontColor=#007FFF;labelBackgroundColor=#001eff;" vertex="1" parent="1">
          <mxGeometry x="520" y="1050" width="10" height="40" as="geometry" />
        </mxCell>
        <mxCell id="pArUkwMWXAyJGo1aVztm-543" value="Validasi&lt;div&gt;Username&lt;br&gt;Password&lt;/div&gt;" style="html=1;align=left;spacingLeft=2;endArrow=block;rounded=0;edgeStyle=orthogonalEdgeStyle;curved=0;rounded=0;exitX=0.954;exitY=0.227;exitDx=0;exitDy=0;exitPerimeter=0;" edge="1" target="pArUkwMWXAyJGo1aVztm-542" parent="1" source="pArUkwMWXAyJGo1aVztm-539">
          <mxGeometry relative="1" as="geometry">
            <mxPoint x="535" y="1010" as="sourcePoint" />
            <Array as="points">
              <mxPoint x="519" y="1040" />
              <mxPoint x="565" y="1040" />
              <mxPoint x="565" y="1070" />
            </Array>
          </mxGeometry>
        </mxCell>
        <mxCell id="pArUkwMWXAyJGo1aVztm-545" value="User Login" style="shape=umlLifeline;perimeter=lifelinePerimeter;whiteSpace=wrap;html=1;container=1;dropTarget=0;collapsible=0;recursiveResize=0;outlineConnect=0;portConstraint=eastwest;newEdgeStyle={&quot;curved&quot;:0,&quot;rounded&quot;:0};" vertex="1" parent="1">
          <mxGeometry x="170" y="890" width="100" height="70" as="geometry" />
        </mxCell>
        <mxCell id="pArUkwMWXAyJGo1aVztm-546" value="Sistem" style="shape=umlLifeline;perimeter=lifelinePerimeter;whiteSpace=wrap;html=1;container=1;dropTarget=0;collapsible=0;recursiveResize=0;outlineConnect=0;portConstraint=eastwest;newEdgeStyle={&quot;curved&quot;:0,&quot;rounded&quot;:0};" vertex="1" parent="1">
          <mxGeometry x="330" y="890" width="100" height="90" as="geometry" />
        </mxCell>
        <mxCell id="pArUkwMWXAyJGo1aVztm-547" value="Database" style="shape=umlLifeline;perimeter=lifelinePerimeter;whiteSpace=wrap;html=1;container=1;dropTarget=0;collapsible=0;recursiveResize=0;outlineConnect=0;portConstraint=eastwest;newEdgeStyle={&quot;curved&quot;:0,&quot;rounded&quot;:0};" vertex="1" parent="1">
          <mxGeometry x="465" y="890" width="100" height="110" as="geometry" />
        </mxCell>
        <mxCell id="pArUkwMWXAyJGo1aVztm-548" value=":Object" style="shape=umlLifeline;perimeter=lifelinePerimeter;whiteSpace=wrap;html=1;container=1;dropTarget=0;collapsible=0;recursiveResize=0;outlineConnect=0;portConstraint=eastwest;newEdgeStyle={&quot;curved&quot;:0,&quot;rounded&quot;:0};" vertex="1" parent="1">
          <mxGeometry x="670" y="890" width="100" height="230" as="geometry" />
        </mxCell>
        <mxCell id="pArUkwMWXAyJGo1aVztm-549" value="" style="html=1;points=[[0,0,0,0,5],[0,1,0,0,-5],[1,0,0,0,5],[1,1,0,0,-5]];perimeter=orthogonalPerimeter;outlineConnect=0;targetShapes=umlLifeline;portConstraint=eastwest;newEdgeStyle={&quot;curved&quot;:0,&quot;rounded&quot;:0};" vertex="1" parent="1">
          <mxGeometry x="715" y="1120" width="10" height="80" as="geometry" />
        </mxCell>
        <mxCell id="pArUkwMWXAyJGo1aVztm-550" value="Menampilkan Landing Page" style="html=1;verticalAlign=bottom;endArrow=block;curved=0;rounded=0;entryX=0;entryY=0;entryDx=0;entryDy=5;" edge="1" target="pArUkwMWXAyJGo1aVztm-549" parent="1">
          <mxGeometry relative="1" as="geometry">
            <mxPoint x="520" y="1125" as="sourcePoint" />
          </mxGeometry>
        </mxCell>
        <mxCell id="pArUkwMWXAyJGo1aVztm-551" value="Menampilkan Landing Page" style="html=1;verticalAlign=bottom;endArrow=open;dashed=1;endSize=8;curved=0;rounded=0;exitX=0;exitY=1;exitDx=0;exitDy=-5;entryX=1;entryY=0.722;entryDx=0;entryDy=0;entryPerimeter=0;" edge="1" source="pArUkwMWXAyJGo1aVztm-549" parent="1" target="pArUkwMWXAyJGo1aVztm-552">
          <mxGeometry relative="1" as="geometry">
            <mxPoint x="520" y="1190" as="targetPoint" />
          </mxGeometry>
        </mxCell>
        <mxCell id="pArUkwMWXAyJGo1aVztm-552" value="" style="html=1;points=[[0,0,0,0,5],[0,1,0,0,-5],[1,0,0,0,5],[1,1,0,0,-5]];perimeter=orthogonalPerimeter;outlineConnect=0;targetShapes=umlLifeline;portConstraint=eastwest;newEdgeStyle={&quot;curved&quot;:0,&quot;rounded&quot;:0};" vertex="1" parent="1">
          <mxGeometry x="510" y="1000" width="10" height="270" as="geometry" />
        </mxCell>
        <mxCell id="pArUkwMWXAyJGo1aVztm-553" value="" style="html=1;points=[[0,0,0,0,5],[0,1,0,0,-5],[1,0,0,0,5],[1,1,0,0,-5]];perimeter=orthogonalPerimeter;outlineConnect=0;targetShapes=umlLifeline;portConstraint=eastwest;newEdgeStyle={&quot;curved&quot;:0,&quot;rounded&quot;:0};" vertex="1" parent="1">
          <mxGeometry x="375" y="980" width="10" height="320" as="geometry" />
        </mxCell>
        <mxCell id="pArUkwMWXAyJGo1aVztm-554" value="Menampilkan Landing&lt;div&gt;Page&lt;/div&gt;" style="html=1;verticalAlign=bottom;endArrow=open;dashed=1;endSize=8;curved=0;rounded=0;exitX=0;exitY=0.815;exitDx=0;exitDy=0;exitPerimeter=0;" edge="1" parent="1" source="pArUkwMWXAyJGo1aVztm-552" target="pArUkwMWXAyJGo1aVztm-553">
          <mxGeometry relative="1" as="geometry">
            <mxPoint x="480" y="1250" as="sourcePoint" />
            <mxPoint x="400" y="1250" as="targetPoint" />
          </mxGeometry>
        </mxCell>
        <mxCell id="pArUkwMWXAyJGo1aVztm-555" value="Menampilkan Landing&lt;br&gt;Page" style="html=1;verticalAlign=bottom;endArrow=open;dashed=1;endSize=8;curved=0;rounded=0;" edge="1" parent="1" target="pArUkwMWXAyJGo1aVztm-556">
          <mxGeometry relative="1" as="geometry">
            <mxPoint x="375" y="1240" as="sourcePoint" />
            <mxPoint x="295" y="1240" as="targetPoint" />
          </mxGeometry>
        </mxCell>
        <mxCell id="pArUkwMWXAyJGo1aVztm-556" value="" style="html=1;points=[[0,0,0,0,5],[0,1,0,0,-5],[1,0,0,0,5],[1,1,0,0,-5]];perimeter=orthogonalPerimeter;outlineConnect=0;targetShapes=umlLifeline;portConstraint=eastwest;newEdgeStyle={&quot;curved&quot;:0,&quot;rounded&quot;:0};" vertex="1" parent="1">
          <mxGeometry x="215" y="960" width="10" height="380" as="geometry" />
        </mxCell>
        <mxCell id="pArUkwMWXAyJGo1aVztm-557" value="Menampilakn Landing&lt;br&gt;Page" style="html=1;verticalAlign=bottom;endArrow=open;dashed=1;endSize=8;curved=0;rounded=0;" edge="1" parent="1" target="pArUkwMWXAyJGo1aVztm-525">
          <mxGeometry x="0.0028" relative="1" as="geometry">
            <mxPoint x="215" y="1280" as="sourcePoint" />
            <mxPoint x="135" y="1280" as="targetPoint" />
            <mxPoint as="offset" />
          </mxGeometry>
        </mxCell>
      </root>
    </mxGraphModel>
  </diagram>
</mxfile>
